<?xml version="1.0" encoding="utf-8"?>
<!-- Svg Vector Icons : http://www.sfont.cn -->
<!DOCTYPE svg PUBLIC "-//W3C//DTD SVG 1.1//EN" "http://www.w3.org/Graphics/SVG/1.1/DTD/svg11.dtd">
<svg version="1.1" xmlns="http://www.w3.org/2000/svg" xmlns:xlink="http://www.w3.org/1999/xlink" x="0px" y="0px" viewBox="0 0 1000 1000" enable-background="new 0 0 1000 1000" xml:space="preserve">
<metadata> Svg Vector Icons : http://www.sfont.cn </metadata>
<g><path d="M500,10C229.4,10,10,229.4,10,500c0,270.6,219.4,490,490,490c270.6,0,490-219.4,490-490C990,229.4,770.6,10,500,10z M500,931.2C262.2,931.2,68.8,737.8,68.8,500C68.8,262.2,262.2,68.8,500,68.8S931.2,262.2,931.2,500C931.2,737.8,737.8,931.2,500,931.2z M427.4,619.5L253.7,445.8l-41.6,41.6l215.3,215.3l334.5-334.5l-41.6-41.6L427.4,619.5z"/></g>
</svg>