<?xml version="1.0" encoding="utf-8"?>
<!-- Svg Vector Icons : http://www.sfont.cn -->
<!DOCTYPE svg PUBLIC "-//W3C//DTD SVG 1.1//EN" "http://www.w3.org/Graphics/SVG/1.1/DTD/svg11.dtd">
<svg version="1.1" xmlns="http://www.w3.org/2000/svg" xmlns:xlink="http://www.w3.org/1999/xlink" x="0px" y="0px" viewBox="0 0 1000 1000" enable-background="new 0 0 1000 1000" xml:space="preserve">
<metadata> Svg Vector Icons : http://www.sfont.cn </metadata>
<g><path d="M500,10C230.5,10,10,230.5,10,500c0,269.5,220.5,490,490,490c269.5,0,490-220.5,490-490C990,228.1,769.5,10,500,10z M745,384.9L463.3,666.6c-7.4,7.4-14.7,9.8-27,9.8c-9.8,0-19.6-4.9-27-9.8L250.1,507.4c-7.3-7.4-9.8-14.7-9.8-26.9c0-19.6,17.1-36.8,36.8-36.8c9.8,0,19.6,4.9,27,9.8l132.3,132.3L691.1,331c7.4-7.3,14.7-9.8,27-9.8c19.6,0,36.7,17.1,36.7,36.8C757.3,367.7,752.4,377.5,745,384.9z"/></g>
</svg>