<?xml version="1.0" encoding="utf-8"?>
<!-- Svg Vector Icons : http://www.sfont.cn -->
<!DOCTYPE svg PUBLIC "-//W3C//DTD SVG 1.1//EN" "http://www.w3.org/Graphics/SVG/1.1/DTD/svg11.dtd">
<svg version="1.1" xmlns="http://www.w3.org/2000/svg" xmlns:xlink="http://www.w3.org/1999/xlink" x="0px" y="0px" viewBox="0 0 1000 1000" enable-background="new 0 0 1000 1000" xml:space="preserve">
<metadata> Svg Vector Icons : http://www.sfont.cn </metadata>
<g><path d="M543.7,500l186.9-183.1c12.1-11.9,12.3-31.2,0.5-43.4l0,0c-11.9-12.1-31.2-12.3-43.4-0.5L500,457.1L312.2,273.2c-12.1-11.9-31.5-11.7-43.4,0.5l0,0c-11.9,12.1-11.7,31.5,0.5,43.4l186.9,183L269.4,683.1c-12.1,11.9-12.3,31.2-0.5,43.4l0,0c11.9,12.1,31.2,12.3,43.4,0.5l187.8-184l187.8,183.9c12.1,11.9,31.5,11.7,43.4-0.5l0,0c11.9-12.1,11.7-31.5-0.5-43.4L543.7,500z"/><path d="M500,71.3c57.9,0,114.1,11.3,166.9,33.7c51,21.6,96.9,52.5,136.3,91.9c39.4,39.4,70.3,85.3,91.9,136.3c22.4,52.8,33.7,109,33.7,166.9s-11.3,114.1-33.7,166.9c-21.6,51-52.5,96.9-91.9,136.3c-39.4,39.4-85.3,70.3-136.3,91.9c-52.8,22.4-109,33.7-166.9,33.7s-114.1-11.3-166.9-33.7c-51-21.6-96.9-52.5-136.3-91.9c-39.4-39.4-70.3-85.3-91.9-136.3c-22.4-52.8-33.7-109-33.7-166.9s11.3-114.1,33.7-166.9c21.6-51,52.5-96.9,91.9-136.3c39.4-39.4,85.3-70.3,136.3-91.9C385.9,82.5,442.1,71.3,500,71.3 M500,10C229.4,10,10,229.4,10,500s219.4,490,490,490s490-219.4,490-490S770.6,10,500,10L500,10z"/></g>
</svg>